<svg width="34" height="34" viewBox="0 0 34 34" fill="none" xmlns="http://www.w3.org/2000/svg">
<g clip-path="url(#clip0_425_257)">
<path d="M21.3209 7.08366C22.7046 7.35363 23.9763 8.03036 24.9732 9.02723C25.9701 10.0241 26.6468 11.2958 26.9168 12.6795M21.3209 1.41699C24.1957 1.73636 26.8765 3.02374 28.9231 5.06775C30.9697 7.11177 32.2605 9.79092 32.5834 12.6653M31.1668 23.9703V28.2203C31.1684 28.6149 31.0876 29.0054 30.9295 29.3669C30.7714 29.7284 30.5396 30.0529 30.2489 30.3196C29.9582 30.5864 29.6149 30.7894 29.2412 30.9158C28.8674 31.0422 28.4714 31.0892 28.0784 31.0537C23.7191 30.58 19.5317 29.0904 15.8526 26.7045C12.4297 24.5294 9.52767 21.6274 7.35261 18.2045C4.95841 14.5087 3.46845 10.3009 3.00344 5.92199C2.96804 5.53024 3.0146 5.1354 3.14015 4.76263C3.2657 4.38985 3.4675 4.0473 3.73269 3.75679C3.99789 3.46628 4.32067 3.23416 4.68048 3.07523C5.04029 2.9163 5.42926 2.83403 5.82261 2.83366H10.0726C10.7601 2.82689 11.4266 3.07035 11.9479 3.51866C12.4692 3.96697 12.8097 4.58954 12.9059 5.27033C13.0853 6.63042 13.418 7.96586 13.8976 9.25116C14.0882 9.75822 14.1295 10.3093 14.0165 10.8391C13.9035 11.3689 13.641 11.8551 13.2601 12.2403L11.4609 14.0395C13.4776 17.5862 16.4143 20.5228 19.9609 22.5395L21.7601 20.7403C22.1453 20.3594 22.6316 20.0969 23.1614 19.984C23.6911 19.871 24.2422 19.9122 24.7493 20.1028C26.0346 20.5824 27.37 20.9151 28.7301 21.0945C29.4183 21.1916 30.0468 21.5382 30.496 22.0684C30.9453 22.5987 31.184 23.2756 31.1668 23.9703Z" stroke="white" stroke-width="3" stroke-linecap="round" stroke-linejoin="round"/>
</g>
<defs>
<clipPath id="clip0_425_257">
<rect width="34" height="34" fill="white"/>
</clipPath>
</defs>
</svg>
