<svg width="30" height="30" viewBox="0 0 30 30" fill="none" xmlns="http://www.w3.org/2000/svg">
<path d="M15.5 18.1616L6.18441 27.4772C5.83587 27.8257 5.39227 28 4.85361 28C4.31496 28 3.87136 27.8257 3.52281 27.4772C3.17427 27.1286 3 26.685 3 26.1464C3 25.6077 3.17427 25.1641 3.52281 24.8156L12.8384 15.5L3.52281 6.18441C3.17427 5.83587 3 5.39227 3 4.85361C3 4.31496 3.17427 3.87136 3.52281 3.52281C3.87136 3.17427 4.31496 3 4.85361 3C5.39227 3 5.83587 3.17427 6.18441 3.52281L15.5 12.8384L24.8156 3.52281C25.1641 3.17427 25.6077 3 26.1464 3C26.685 3 27.1286 3.17427 27.4772 3.52281C27.8257 3.87136 28 4.31496 28 4.85361C28 5.39227 27.8257 5.83587 27.4772 6.18441L18.1616 15.5L27.4772 24.8156C27.8257 25.1641 28 25.6077 28 26.1464C28 26.685 27.8257 27.1286 27.4772 27.4772C27.1286 27.8257 26.685 28 26.1464 28C25.6077 28 25.1641 27.8257 24.8156 27.4772L15.5 18.1616Z" fill="white"/>
</svg>
